<svg xmlns="http://www.w3.org/2000/svg" viewBox="0 0 17 17"><rect x="7" y="7" width="1" height="1" fill="currentColor" /><rect x="7" y="9" width="1" height="1" fill="currentColor" /><rect x="8" y="8" width="1" height="1" fill="currentColor" /><rect x="6" y="10" width="1" height="1" fill="currentColor" /><rect x="5" y="11" width="1" height="1" fill="currentColor" /><rect x="4" y="12" width="1" height="1" fill="currentColor" /><rect x="3" y="13" width="1" height="1" fill="currentColor" /><rect x="2" y="14" width="1" height="1" fill="currentColor" /><rect x="1" y="15" width="1" height="1" fill="currentColor" /><rect y="16" width="1" height="1" fill="currentColor" /><rect x="6" y="6" width="1" height="1" fill="currentColor" /><rect x="5" y="5" width="1" height="1" fill="currentColor" /><rect x="4" y="4" width="1" height="1" fill="currentColor" /><rect x="3" y="3" width="1" height="1" fill="currentColor" /><rect x="2" y="2" width="1" height="1" fill="currentColor" /><rect x="1" y="1" width="1" height="1" fill="currentColor" /><rect width="1" height="1" fill="currentColor" /><rect x="9" y="7" width="1" height="1" fill="currentColor" /><rect x="9" y="9" width="1" height="1" fill="currentColor" /><rect x="8" y="8" width="1" height="1" fill="currentColor" /><rect x="10" y="10" width="1" height="1" fill="currentColor" /><rect x="11" y="11" width="1" height="1" fill="currentColor" /><rect x="12" y="12" width="1" height="1" fill="currentColor" /><rect x="13" y="13" width="1" height="1" fill="currentColor" /><rect x="14" y="14" width="1" height="1" fill="currentColor" /><rect x="15" y="15" width="1" height="1" fill="currentColor" /><rect x="16" y="16" width="1" height="1" fill="currentColor" /><rect x="10" y="6" width="1" height="1" fill="currentColor" /><rect x="11" y="5" width="1" height="1" fill="currentColor" /><rect x="12" y="4" width="1" height="1" fill="currentColor" /><rect x="13" y="3" width="1" height="1" fill="currentColor" /><rect x="14" y="2" width="1" height="1" fill="currentColor" /><rect x="15" y="1" width="1" height="1" fill="currentColor" /><rect x="16" width="1" height="1" fill="currentColor" /></svg>