<svg xmlns="http://www.w3.org/2000/svg" xmlns:xlink="http://www.w3.org/1999/xlink" viewBox="0 0 10.49 8.4"><path d="M5.7,5.17v0a.5.5,0,0,1-.17.11h0l-.1,0h0l-.1,0h0a.62.62,0,0,1-.17-.11s0,0,0,0l-.45-.42L.7,8.34A1.14,1.14,0,0,0,1,8.4H9.47a1.13,1.13,0,0,0,.32-.06L6,4.87Z" transform="translate(0 0)" fill="currentColor"/><path d="M.09.61A1,1,0,0,0,0,1V7.37a1,1,0,0,0,.08.38L4,4.17Z" transform="translate(0 0)" fill="currentColor"/><path d="M9.93.11A1,1,0,0,0,9.47,0H1A1.26,1.26,0,0,0,.75,0L5.37,4.31Z" transform="translate(0 0)" fill="currentColor"/><path d="M10.46.78,6.66,4.29l3.76,3.46a1,1,0,0,0,.07-.38V1a1,1,0,0,0,0-.25" transform="translate(0 0)" fill="currentColor"/></svg>