<svg xmlns="http://www.w3.org/2000/svg" xmlns:xlink="http://www.w3.org/1999/xlink" viewBox="0 0 19.28 17.9"><path d="M13.76,1.5A4.94,4.94,0,0,1,16,2,5.35,5.35,0,0,1,18.6,5.45a5.5,5.5,0,0,1-.77,4.47h0l0,.09h0c-.53.86-3.43,3.55-7.5,7l-.14-.19L10,17c-4.07-3.42-7-6.11-7.49-7h0l0-.09h0a5.46,5.46,0,0,1-.77-4.47A5.35,5.35,0,0,1,4.24,2,4.94,4.94,0,0,1,6.52,1.5a7.4,7.4,0,0,1,3.18.81l.44.21.44-.21a7.4,7.4,0,0,1,3.18-.81m0-1a8.39,8.39,0,0,0-3.62.91A8.39,8.39,0,0,0,6.52.5a6,6,0,0,0-2.74.65A6.37,6.37,0,0,0,.71,5.2a6.5,6.5,0,0,0,.91,5.29l0-.06,0,.09,0,0c.88,1.5,6.73,6.42,8.51,7.91h0c1.79-1.49,7.64-6.41,8.51-7.91l0,0,.06-.09a.21.21,0,0,1,0,.06,6.5,6.5,0,0,0,.92-5.29,6.35,6.35,0,0,0-3.08-4.05A6,6,0,0,0,13.76.5" transform="translate(-0.5 -0.5)" fill="currentColor"/></svg>