<svg xmlns="http://www.w3.org/2000/svg" xmlns:xlink="http://www.w3.org/1999/xlink" viewBox="0 0 20 19"><path d="M5.34,14a2.51,2.51,0,0,0-2.45,2H0v1H2.89a2.5,2.5,0,0,0,4.9,0H20V16H7.79a2.5,2.5,0,0,0-2.45-2m0,4a1.5,1.5,0,1,1,1.5-1.5A1.5,1.5,0,0,1,5.34,18" transform="translate(0)" fill="currentColor" /><path d="M14.66,7a2.5,2.5,0,0,0-2.45,2H0v1H12.21a2.5,2.5,0,0,0,4.9,0H20V9H17.11a2.51,2.51,0,0,0-2.45-2m0,4a1.5,1.5,0,1,1,1.5-1.5,1.5,1.5,0,0,1-1.5,1.5" transform="translate(0)" fill="currentColor" /><path d="M7.79,2a2.5,2.5,0,0,0-4.9,0H0V3H2.89a2.5,2.5,0,0,0,4.9,0H20V2ZM5.34,4a1.5,1.5,0,1,1,1.5-1.5A1.5,1.5,0,0,1,5.34,4" transform="translate(0)" fill="currentColor" /></svg>