<svg xmlns="http://www.w3.org/2000/svg" viewBox="0 0 17 20"><rect x="10" y="1" width="1" height="1" fill="currentColor" /><rect x="9" width="1" height="1" fill="currentColor" /><rect x="10" y="5" width="1" height="1" fill="currentColor" /><rect x="9" y="6" width="1" height="1" fill="currentColor" /><rect x="4" y="14" width="6" height="1" fill="currentColor" /><polygon points="5 4 11 4 11 5 12 5 12 4 13 4 13 3 12 3 12 2 11 2 11 3 4 3 4 4 4 9 5 9 5 4" fill="currentColor" /><rect x="4" y="16" width="6" height="1" fill="currentColor" /><polygon points="14 3 14 4 16 4 16 19 1 19 1 4 3 4 3 3 0 3 0 20 17 20 17 3 14 3" fill="currentColor" /></svg>