<svg xmlns="http://www.w3.org/2000/svg" xmlns:xlink="http://www.w3.org/1999/xlink" viewBox="0 0 19.66 19.66"><path d="M9.83,6.66A3.18,3.18,0,1,0,13,9.83,3.19,3.19,0,0,0,9.83,6.66" transform="translate(0 0)" fill="currentColor"/><path d="M14.71,0H5A4.94,4.94,0,0,0,0,4.9v9.86a4.94,4.94,0,0,0,5,4.9h9.76a4.94,4.94,0,0,0,4.95-4.9V4.9A4.94,4.94,0,0,0,14.71,0M9.83,15.46a5.63,5.63,0,1,1,5.69-5.63,5.66,5.66,0,0,1-5.69,5.63M15.72,5a1.44,1.44,0,1,1,1.45-1.43A1.44,1.44,0,0,1,15.72,5" transform="translate(0 0)" fill="currentColor"/></svg>