<svg xmlns="http://www.w3.org/2000/svg" viewBox="0 0 18 17"><polygon points="5 7 5 8 4 8 4 9 5 9 5 10 6 10 6 9 18 9 18 8 6 8 6 7 5 7" fill="currentColor" /><rect x="6" y="6" width="1" height="1" fill="currentColor" /><rect x="7" y="5" width="1" height="1" fill="currentColor" /><rect x="8" y="4" width="1" height="1" fill="currentColor" /><rect x="9" y="3" width="1" height="1" fill="currentColor" /><rect x="6" y="10" width="1" height="1" fill="currentColor" /><rect x="7" y="11" width="1" height="1" fill="currentColor" /><rect x="8" y="12" width="1" height="1" fill="currentColor" /><rect x="9" y="13" width="1" height="1" fill="currentColor" /><polygon points="0 0 0 17 15 17 15 14 14 14 14 16 1 16 1 1 14 1 14 3 15 3 15 0 0 0" fill="currentColor" /></svg>