<svg xmlns="http://www.w3.org/2000/svg" xmlns:xlink="http://www.w3.org/1999/xlink" viewBox="0 0 8.55 8.76"><path d="M7.75,7.16,6.08,5.58a.4.4,0,0,0-.26-.12.46.46,0,0,0-.3.11L5.12,6A.94.94,0,0,1,4,5.8L2.81,4.54a.78.78,0,0,1-.06-1.06c.1-.1.36-.38.47-.47a.44.44,0,0,0,.14-.29.49.49,0,0,0-.11-.31L1.8.5A.46.46,0,0,0,1.48.33a.44.44,0,0,0-.36.15l0,0a3,3,0,0,0-1.1,2C0,4.6,3.74,8.63,5.55,8.75c.56,0,1.11-.1,2.15-.94a.44.44,0,0,0,.18-.32.43.43,0,0,0-.13-.33" transform="translate(0 0)" fill="currentColor"/><path d="M8.54,4.41a.3.3,0,0,1-.27.22.32.32,0,0,1-.35-.28,4.24,4.24,0,0,0-3-3.71L4.8.62A.31.31,0,0,1,4.58.23.33.33,0,0,1,5,0l.08,0a4.86,4.86,0,0,1,3.5,4.26.25.25,0,0,1,0,.12" transform="translate(0 0)" fill="currentColor"/><path d="M6.89,4.27a.3.3,0,0,1-.25.22.31.31,0,0,1-.36-.25,2.66,2.66,0,0,0-1.6-2,.31.31,0,1,1,.24-.58,3.28,3.28,0,0,1,2,2.42.38.38,0,0,1,0,.15" transform="translate(0 0)" fill="currentColor"/></svg>