<svg xmlns="http://www.w3.org/2000/svg" xmlns:xlink="http://www.w3.org/1999/xlink" viewBox="0 0 20 20"><path d="M10,1a9,9,0,1,1-9,9,9,9,0,0,1,9-9m0-1A10,10,0,1,0,20,10,10,10,0,0,0,10,0" transform="translate(0)" fill="currentColor" /><path d="M9.16,12.19a4.21,4.21,0,0,1,.18-1.28,3.26,3.26,0,0,1,.7-1l.89-.93a2,2,0,0,0,.58-1.39,1.58,1.58,0,0,0-.38-1.12A1.41,1.41,0,0,0,10,6a1.66,1.66,0,0,0-1.12.37,1.25,1.25,0,0,0-.43,1H7.23A2.29,2.29,0,0,1,8,5.6a2.92,2.92,0,0,1,2-.68,2.79,2.79,0,0,1,2,.69,2.52,2.52,0,0,1,.72,1.9,3.45,3.45,0,0,1-1.11,2.36l-.74.73a2.31,2.31,0,0,0-.5,1.59ZM9.1,14.36a.74.74,0,0,1,.19-.52.7.7,0,0,1,.56-.21.73.73,0,0,1,.56.21.79.79,0,0,1,.19.52.68.68,0,0,1-.75.72.73.73,0,0,1-.56-.2.73.73,0,0,1-.19-.52" transform="translate(0)" fill="currentColor" /></svg>