<svg xmlns="http://www.w3.org/2000/svg" xmlns:xlink="http://www.w3.org/1999/xlink" viewBox="0 0 29.42 35.71"><path d="M10.13,13.66a5.93,5.93,0,1,1-8.39,0,5.93,5.93,0,0,1,8.39,0" transform="translate(0 0)" fill="currentColor"/><path d="M28.44,2.67A5.93,5.93,0,1,1,20.22,1a5.93,5.93,0,0,1,8.22,1.69" transform="translate(0 0)" fill="currentColor"/><rect x="3.89" y="10.35" width="21.91" height="2.54" transform="translate(-3.94 10.08) rotate(-33.36)" fill="currentColor"/><path d="M28.44,33a5.93,5.93,0,1,0-8.22,1.7A5.94,5.94,0,0,0,28.44,33" transform="translate(0 0)" fill="currentColor"/><rect x="13.58" y="13.13" width="2.54" height="21.91" transform="translate(-13.43 23.25) rotate(-56.64)" fill="currentColor"/></svg>