<svg xmlns="http://www.w3.org/2000/svg" xmlns:xlink="http://www.w3.org/1999/xlink" viewBox="0 0 20.26 19.08"><path d="M10.13,1a5.15,5.15,0,0,1,5,5.31,5.15,5.15,0,0,1-5,5.3,5.15,5.15,0,0,1-5-5.3,5.15,5.15,0,0,1,5-5.31m0-1a6.14,6.14,0,0,0-6,6.31,6.14,6.14,0,0,0,6,6.3,6.14,6.14,0,0,0,6-6.3,6.14,6.14,0,0,0-6-6.31" transform="translate(0 0)" fill="currentColor"/><path d="M4.29,11.93A11,11,0,0,0,0,19.08H1a10,10,0,0,1,4-6.43,8.15,8.15,0,0,1-.72-.72" transform="translate(0 0)" fill="currentColor"/><path d="M16,11.93a8,8,0,0,1-.71.72,9.94,9.94,0,0,1,4,6.43h1A11,11,0,0,0,16,11.93" transform="translate(0 0)" fill="currentColor"/></svg>