<svg xmlns="http://www.w3.org/2000/svg" xmlns:xlink="http://www.w3.org/1999/xlink" viewBox="0 0 26.74 16.03"><path d="M14.28,16c.89,0,.89-1.28.89-1.78A1.91,1.91,0,0,1,17,12.46c.89,0,2.41,1.53,3.56,2.67.89.89.89.89,1.78.89H25a1.8,1.8,0,0,0,1.78-1.78c0-.56-.61-1.5-2.67-3.56-1.78-1.78-2.69-.86,0-4.45C25.71,4,26.9,2.06,26.7,1.49S21.94.08,21.4.89a32.62,32.62,0,0,0-2.67,4.45C17.84,7.12,17.75,8,17,8s-.89-1.73-.89-2.67c0-2.94.42-5-.89-5.34H12.5A5.14,5.14,0,0,0,9.83.89s-1.11.86-.89.89,1.78-.37,1.78.89V4.45S10.72,8,9.83,8,7.16,4.45,5.38,1.78C4.68.73,4.49.89,3.6.89S1.82.93.93.93s-1,.57-.89.85C1.82,6.23,3.09,9,6.48,12.55c3.1,3.23,5.17,3.4,6.91,3.47.44,0,0,0,.89,0" transform="translate(0 0)" fill="currentColor"/></svg>