<svg xmlns="http://www.w3.org/2000/svg" viewBox="0 0 117.87 115.65"><rect x="22.31" y="45.19" width="43.26" height="1.5"/><rect x="22.31" y="34.17" width="32.84" height="1.5"/><rect x="22.31" y="23.15" width="43.26" height="1.5"/><path d="M31.5,70.51l.89-.67H87.87V31.5h28.5V98.34H104.71v1.51l.1,12.76-18.43-14-.41-.3H31.5Zm-30-69H86.37V68.34H31.89l-.4.3-18.44,14,.1-12.76V68.34H1.5ZM0,0V69.84H11.65l-.13,15.81L30,71.65V99.84H85.48l20.87,15.81-.13-15.81h11.65V30h-30V0Z" transform="translate(0 0)"/></svg>