<svg xmlns="http://www.w3.org/2000/svg" xmlns:xlink="http://www.w3.org/1999/xlink" viewBox="0 0 117.65 117.65"><defs><clipPath id="a" transform="translate(-0.75 -0.75)"><rect width="119.15" height="119.15" fill="none"/></clipPath></defs><g clip-path="url(#a)"><path d="M63,2.25l2.12,12.47.18,1.06,1.07.17c1.05.16,2.11.36,3.15.61h.06l.07,0c.29.06.57.13.85.21l.35.09.14,0,.14,0,.36.1.1,0h.06l.53.16.14,0,.08,0,.07,0c1,.3,2,.66,3,1l1,.39.69-.83,8.07-9.74,5.95,3.44L86.82,23.51l-.38,1,.84.68c.83.66,1.64,1.37,2.41,2.09l0,0,.07.06.62.6.27.27.1.09.09.1.26.26c.21.21.41.43.61.64l0,.06,0,0c.72.78,1.43,1.59,2.09,2.42l.68.84,1-.38,11.86-4.39,3.43,5.94L101.2,42l-.83.69.39,1c.38,1,.73,2,1,3l0,.07,0,.08c.09.28.17.55.25.83l.1.37,0,.13,0,.12.09.37c.08.28.14.56.21.84l0,.08v.07c.24,1,.45,2.09.61,3.14l.17,1.06,1.06.19,12.47,2.12V63l-12.47,2.12-1.06.18-.17,1.07c-.16,1.05-.37,2.1-.61,3.14v.06l0,.08c-.07.28-.13.57-.21.85l-.09.35,0,.14,0,.13-.1.37c-.08.28-.16.55-.25.83l0,.08,0,.07c-.31,1-.66,2-1,3l-.39,1,.83.69,9.73,8.07-3.43,5.95L95.64,86.82l-1-.38-.68.84c-.66.83-1.37,1.64-2.09,2.41l0,0-.06.06-.61.63-.26.27-.09.09-.1.1-.27.27-.62.59-.07.06,0,0c-.77.72-1.58,1.43-2.41,2.09l-.84.68.38,1,4.39,11.86-5.95,3.43-8.07-9.73-.69-.83-1,.39c-1,.38-2,.73-3,1l-.06,0-.08,0-.14,0-.53.15-.06,0-.11,0-.36.1-.13,0-.14,0-.35.09c-.28.08-.56.14-.85.21l-.1,0h0l-.12,0-.1,0q-1.07.24-2.13.42l-.78.13-1.07.17-.18,1.06L63,116.9H56.14L54,104.43l-.18-1.06-1.06-.17c-1.05-.16-2.11-.37-3.14-.61h-.06l-.08,0c-.29-.07-.57-.13-.85-.21l-.38-.1-.11,0-.12,0-.38-.1-.1,0-.06,0-.54-.16-.13,0-.08,0-.07,0c-1-.31-2-.66-3-1l-1-.39-.69.83-8.08,9.73-5.94-3.43,4.39-11.86.38-1L31.87,94c-.83-.66-1.64-1.37-2.42-2.09l0,0-.07,0-.63-.61-.27-.27-.09-.09-.09-.09L28,90.43l-.6-.62-.06-.07,0,0c-.72-.77-1.43-1.58-2.09-2.41l-.68-.84-1,.38L11.65,91.21,8.21,85.26,18,77.19l.83-.69-.39-1c-.38-1-.73-2-1-3l0-.06,0-.08c-.08-.28-.16-.55-.24-.84l-.1-.35,0-.14,0-.13-.1-.36c-.07-.28-.13-.57-.2-.85l0-.08,0-.07c-.23-1-.44-2.08-.6-3.13l-.17-1.07-1.06-.18L2.25,63V56.14L14.72,54l1.07-.21L16,52.74l.12-.75c.13-.71.27-1.43.43-2.13l0-.1,0-.13,0-.07,0-.07c.07-.29.13-.57.2-.85l.1-.36,0-.13L17,48c0-.12.07-.24.1-.36l.24-.83,0-.09,0-.06c.31-1,.66-2,1-3l.39-1L18,42,8.21,33.88l3.44-5.94,11.86,4.39,1,.38.68-.84c.66-.83,1.37-1.64,2.09-2.42l.05-.05.05-.06.6-.63.27-.26.09-.1.13-.12.16-.17,0,0,0,0h0l.62-.6.07-.06.05,0c.77-.72,1.58-1.43,2.41-2.09l.84-.68-.38-1L27.94,11.65l5.94-3.44L42,18l.69.83,1-.39c1-.38,2-.74,3-1l.07,0,.08,0,.14,0,.53-.16h.06l.1,0L48,17l.13,0,.14,0,.35-.1.85-.2.08,0,.06,0c1-.24,2.09-.44,3.14-.6l1.06-.17L54,14.72,56.14,2.25H63M64.27.75H54.88L52.54,14.47c-1.09.16-2.17.37-3.25.62h0l-.12,0-.88.21-.5.14-.52.14-.17,0-.69.21-.16,0c-1,.32-2.09.68-3.11,1.08L34.23,6.28,26.09,11,30.92,24q-1.28,1-2.49,2.16l-.11.11-.65.62s0,0,0,0l0,0-.3.3-.37.38c-.21.21-.42.43-.62.65l-.11.11Q25.07,29.64,24,30.92L11,26.09l-4.7,8.14L17,43.11c-.4,1-.75,2.07-1.08,3.12,0,.05,0,.11,0,.16-.09.28-.17.57-.25.86s-.1.34-.14.51-.1.34-.14.51l-.21.87s0,.1,0,.16a1.55,1.55,0,0,0-.05.23c-.17.73-.32,1.46-.44,2.2,0,.27-.09.54-.13.81L.75,54.88v9.39l13.72,2.34c.16,1.08.37,2.17.62,3.24,0,.05,0,.1,0,.16l.21.87c0,.17.09.34.14.51s.09.34.14.51.16.58.25.86l0,.15Q16.39,74.5,17,76L6.28,84.92,11,93.06,24,88.22c.69.86,1.41,1.69,2.16,2.5l.11.11c.2.22.41.44.62.65s.25.25.37.37l.38.38.65.62.11.11q1.21,1.13,2.49,2.16l-4.83,13,8.14,4.7,8.89-10.71q1.53.59,3.12,1.08l.14,0,.7.21.17,0,.51.14.51.14.87.21.13,0h0c1.07.25,2.15.45,3.24.62l2.34,13.72h9.39l2.34-13.72.81-.13c.73-.13,1.47-.27,2.2-.44l.23,0h0l.13,0,.87-.21.51-.14.51-.14.17,0,.69-.21.15,0q1.59-.49,3.12-1.08l8.89,10.71,8.14-4.7-4.84-13c.86-.69,1.69-1.41,2.5-2.16l.11-.11.65-.62.38-.38.37-.37c.21-.21.42-.43.62-.65l.11-.11c.75-.81,1.47-1.64,2.16-2.5l13,4.84,4.7-8.14L102.16,76q.59-1.53,1.08-3.12s0-.1,0-.15c.09-.28.17-.57.25-.86s.1-.34.14-.51.09-.34.14-.51L104,70a.75.75,0,0,1,0-.16c.25-1.07.45-2.16.62-3.24l13.72-2.34V54.88l-13.72-2.34c-.17-1.09-.37-2.17-.62-3.24a1.24,1.24,0,0,1,0-.16l-.21-.87c0-.17-.09-.34-.14-.51s-.09-.34-.14-.51-.16-.58-.25-.87c0-.05,0-.1,0-.15q-.49-1.57-1.08-3.12l10.71-8.88-4.7-8.14-13,4.83q-1-1.28-2.16-2.49l-.11-.11c-.2-.22-.41-.44-.62-.65l-.37-.38-.38-.37-.65-.62-.11-.11c-.81-.75-1.64-1.47-2.5-2.16l4.84-13-8.14-4.7L76,17q-1.53-.6-3.12-1.08l-.15,0-.69-.21-.17-.05-.51-.13-.51-.14L70,15.13l-.13,0h0c-1.07-.25-2.15-.46-3.24-.62Z" transform="translate(-0.75 -0.75)"/><path d="M59.57,39.47a20.11,20.11,0,1,1-20.1,20.1,20.13,20.13,0,0,1,20.1-20.1m0-1.5a21.61,21.61,0,1,0,21.61,21.6A21.6,21.6,0,0,0,59.57,38" transform="translate(-0.75 -0.75)"/></g></svg>