<svg xmlns="http://www.w3.org/2000/svg" xmlns:xlink="http://www.w3.org/1999/xlink" viewBox="0 0 119.7 119.92"><defs><clipPath id="a" transform="translate(0 0)"><rect width="119.7" height="119.92" fill="none"/></clipPath></defs><g clip-path="url(#a)"><path d="M20.39,119.17V107.46A2.83,2.83,0,0,0,20,106L1.14,74.35a2.75,2.75,0,0,1-.35-1.86L6.32,32.28a2.76,2.76,0,0,1,5.48.17l2.11,24.19" transform="translate(0 0)" fill="none" stroke="#000" stroke-linecap="round" stroke-linejoin="round" stroke-width="1.5"/><path d="M46.64,119.17v-11a5.42,5.42,0,0,1,1-3.19l2-2.73a5.45,5.45,0,0,0,1-3.19V90.45a5.44,5.44,0,0,0-1.89-4.12L22.37,63.53a5.41,5.41,0,0,0-4.55-1.22l-.14,0a5.44,5.44,0,0,0-3,9L29,86.77" transform="translate(0 0)" fill="none" stroke="#000" stroke-linecap="round" stroke-miterlimit="10" stroke-width="1.5"/><path d="M99.31,119.17V107.46A2.83,2.83,0,0,1,99.7,106l18.86-31.69a2.76,2.76,0,0,0,.36-1.86l-5.54-40.21a2.76,2.76,0,0,0-5.48.17l-2.11,24.19" transform="translate(0 0)" fill="none" stroke="#000" stroke-linecap="round" stroke-linejoin="round" stroke-width="1.5"/><path d="M73.07,119.17v-11A5.43,5.43,0,0,0,72,105l-2-2.73A5.44,5.44,0,0,1,69,99V90.45a5.43,5.43,0,0,1,1.88-4.12l26.43-22.8a5.42,5.42,0,0,1,4.56-1.22l.14,0a5.43,5.43,0,0,1,3,9L90.73,86.77" transform="translate(0 0)" fill="none" stroke="#000" stroke-linecap="round" stroke-miterlimit="10" stroke-width="1.5"/><path d="M95,56.76H24.72V1.5H95ZM96.52,0H23.22V58.26h73.3Z" transform="translate(0 0)"/><rect x="31.22" y="48.73" width="19.33" height="1.5"/><rect x="31.22" y="43.71" width="19.33" height="1.5"/><rect x="31.22" y="38.69" width="19.33" height="1.5"/></g></svg>