<svg xmlns="http://www.w3.org/2000/svg" xmlns:xlink="http://www.w3.org/1999/xlink" viewBox="0 0 108.94 120"><defs><clipPath id="a" transform="translate(0 0)"><rect width="108.95" height="120" fill="none"/></clipPath></defs><polygon points="52.15 27.77 50.65 27.77 50.65 59.25 50.65 60.75 52.15 60.75 82.86 60.75 82.86 59.25 52.15 59.25 52.15 27.77"/><g clip-path="url(#a)"><path d="M51.4,17.62a.75.75,0,1,0-.75-.75.76.76,0,0,0,.75.75" transform="translate(0 0)"/><path d="M8.27,59.25A.75.75,0,1,0,9,60a.75.75,0,0,0-.75-.75" transform="translate(0 0)"/><path d="M96,59.25a.75.75,0,1,0,.75.75.75.75,0,0,0-.75-.75" transform="translate(0 0)"/><path d="M51.41,102.37a.75.75,0,1,0,.75.75.75.75,0,0,0-.75-.75" transform="translate(0 0)"/><path d="M106.49,53h-4.18A51.4,51.4,0,0,0,79.52,17L78,2.67A3,3,0,0,0,75,0H27.82a3,3,0,0,0-3,2.67L23.28,17a51.37,51.37,0,0,0,0,86l1.56,14.31a3,3,0,0,0,3,2.68H75a3,3,0,0,0,3-2.68L79.52,103A51.41,51.41,0,0,0,102,69.17h4.53A2.46,2.46,0,0,0,109,66.72V55.45A2.46,2.46,0,0,0,106.49,53M26.33,2.84A1.49,1.49,0,0,1,27.82,1.5H75a1.51,1.51,0,0,1,1.5,1.34L77.89,16a51.37,51.37,0,0,0-53,0ZM76.47,117.16A1.51,1.51,0,0,1,75,118.5H27.82a1.5,1.5,0,0,1-1.49-1.34L24.9,104a51.37,51.37,0,0,0,53,0ZM51.4,109.9A49.9,49.9,0,1,1,101.29,60,50,50,0,0,1,51.4,109.9m56.05-43.18a1,1,0,0,1-1,1h-4.27a51,51,0,0,0,.57-7.67,52.6,52.6,0,0,0-.29-5.5h4a1,1,0,0,1,1,1Z" transform="translate(0 0)"/></g></svg>