<svg xmlns="http://www.w3.org/2000/svg" xmlns:xlink="http://www.w3.org/1999/xlink" viewBox="0 0 110 104.49"><defs><clipPath id="a" transform="translate(0 0)"><rect width="110" height="104.49" fill="none"/></clipPath></defs><path d="M1.5,21.34h107V103H1.5ZM0,104.49H110V19.84H0Z" transform="translate(0 0)"/><path d="M57,49.2l13.66,13L57,75.12V69.78H38.66V54.55H57V49.2Zm-1.5-3.48v7.33H37.16V71.28H55.5v7.33L72.84,62.16Z" transform="translate(0 0)"/><g clip-path="url(#a)"><path d="M54.61,1.5h.78A20,20,0,0,1,75.38,21h1.5A21.5,21.5,0,0,0,55.39,0h-.78A21.5,21.5,0,0,0,33.12,21h1.5a20,20,0,0,1,20-19.45" transform="translate(0 0)"/></g></svg>