<?xml version="1.0" encoding="utf-8"?>
<!-- Generator: Adobe Illustrator 25.2.1, SVG Export Plug-In . SVG Version: 6.00 Build 0)  -->
<svg version="1.1" id="Слой_1" xmlns="http://www.w3.org/2000/svg" xmlns:xlink="http://www.w3.org/1999/xlink" x="0px" y="0px"
	 width="170px" height="49.718px" viewBox="0 0 170 49.718" enable-background="new 0 0 170 49.718" xml:space="preserve">
<g>
	<path d="M2.34,1.454c0.505,0,1.119,0.045,1.408,0.136c1.192,0.318,1.48,1.046,1.553,2.592c0.072,1.454,0.072,2.727,0.072,9.64
		v8.001c0,4.184,0,7.777-0.181,9.687c-0.145,1.317-0.324,2.318-1.047,2.5c-0.324,0.091-0.758,0.18-1.3,0.18
		c-0.433,0-0.577,0.139-0.577,0.366c0,0.318,0.252,0.455,0.722,0.455c1.444,0,3.718-0.137,4.55-0.137
		c0.937,0,3.213,0.137,5.596,0.137c0.398,0,0.685-0.137,0.685-0.455c0-0.226-0.18-0.366-0.577-0.366
		c-0.541,0-1.335-0.089-1.841-0.18c-1.084-0.182-1.3-1.183-1.408-2.455c-0.181-1.955-0.181-5.548-0.181-9.732V3.637
		c0-0.502,0.109-0.774,0.289-0.864c0.324-0.137,0.866-0.183,1.408-0.183c0.831,0,2.31,0.273,3.611,1.774
		c2.022,2.274,2.13,5.321,2.13,6.82c0,4.639-2.817,7.505-4.838,7.505c-0.758,0-1.011,0.134-1.011,0.498
		c0,0.317,0.253,0.363,0.434,0.409c0.179,0.045,0.577,0.045,0.758,0.045c5.127,0,8.882-4.548,8.882-11.004
		c0-2.409-1.01-4.455-1.804-5.41c-0.579-0.684-2.204-2.592-6.718-2.592c-1.661,0-3.754,0.137-5.236,0.137
		c-1.011,0-3.285-0.137-5.199-0.137c-0.541,0-0.794,0.09-0.794,0.408C1.726,1.364,1.943,1.454,2.34,1.454"/>
	<path d="M32.347,8.457c0-0.318,0.072-0.454,0.29-0.547c0.323-0.09,1.082-0.136,1.877-0.136c1.877,0,4.838,1.409,4.838,6.866
		c0,3.182-1.084,4.864-2.059,5.728c-0.541,0.502-0.975,0.639-2.238,0.639c-0.794,0-1.734-0.092-2.418-0.364
		c-0.218-0.137-0.29-0.274-0.29-0.684V8.457z M25.631,6.547c0.469,0,1.011,0.045,1.263,0.136c1.012,0.363,1.3,0.773,1.373,2.091
		c0.037,1.229,0.037,2.319,0.037,8.184v6.821c0,3.546,0,6.592-0.145,8.23c-0.109,1.136-0.289,1.864-0.94,2.046
		c-0.288,0.091-0.649,0.135-1.119,0.135c-0.397,0-0.504,0.228-0.504,0.413c0,0.271,0.216,0.408,0.613,0.408
		c1.263,0,3.285-0.137,3.899-0.137c0.47,0,3.106,0.137,4.947,0.137c0.397,0,0.65-0.137,0.65-0.408c0-0.184-0.145-0.413-0.397-0.413
		c-0.397,0-1.084-0.044-1.553-0.135c-0.974-0.182-1.118-0.91-1.227-2.046c-0.145-1.639-0.181-4.637-0.181-8.23v-0.545
		c0-0.227,0.109-0.317,0.253-0.317l2.852,0.09c0.217,0,0.398,0.046,0.578,0.273c0.397,0.59,1.733,3.182,2.996,5.274
		c1.769,3.001,2.962,4.819,4.333,5.684c0.83,0.545,1.698,0.774,3.466,0.774h3.034c0.397,0,0.613-0.092,0.613-0.408
		c0-0.184-0.144-0.413-0.397-0.413c-0.251,0-0.433,0-0.759-0.09c-0.504-0.136-1.623-0.318-3.393-2.546
		c-1.913-2.41-4.152-5.911-6.97-10.275c3.106-3.138,4.405-5.685,4.405-8.549c0-2.591-1.335-4.546-2.238-5.321
		c-1.697-1.408-4.009-1.635-6.03-1.635c-0.975,0-3.863,0.09-4.947,0.09c-0.65,0-2.672-0.09-4.332-0.09
		c-0.47,0-0.722,0.09-0.722,0.363C25.09,6.411,25.305,6.547,25.631,6.547"/>
	<path d="M61.813,7.275c5.128,0,9.208,5.274,9.208,13.821c0,11.004-5.054,12.322-7.291,12.322c-5.997,0-9.607-6.276-9.607-14.232
		C54.122,9.639,58.274,7.275,61.813,7.275 M62.427,35.511c8.197,0,13.325-6.958,13.325-15.824c0-8.867-4.983-14.459-13-14.459
		c-9.641,0-13.324,8.546-13.324,15.14C49.428,27.235,53.183,35.511,62.427,35.511"/>
	<path d="M96.804,34.555c0-0.227-0.181-0.363-0.579-0.363c-0.541,0-1.336-0.091-1.841-0.182c-1.083-0.182-1.3-1.183-1.408-2.456
		c-0.181-1.954-0.181-5.547-0.181-9.731V3.182l4.55,0.136c3.214,0.092,4.188,1.364,4.26,2.547l0.036,0.499
		c0.037,0.682,0.109,0.91,0.398,0.91c0.216,0,0.29-0.272,0.324-0.728c0-1.182,0.109-4.32,0.109-5.275
		c0-0.68-0.036-0.955-0.289-0.955c-0.144,0-0.433,0.091-0.974,0.227c-0.543,0.091-1.337,0.228-2.491,0.228h-14.3
		c-1.191,0-2.564-0.092-3.61-0.228C79.905,0.453,79.543,0,79.254,0c-0.216,0-0.324,0.272-0.433,0.863
		c-0.072,0.364-0.758,4.502-0.758,5.229c0,0.5,0.072,0.729,0.325,0.729c0.216,0,0.325-0.182,0.397-0.545
		c0.071-0.366,0.253-0.91,0.614-1.593c0.541-1,1.409-1.227,3.502-1.317l5.38-0.183v18.641c0,4.184,0,7.777-0.181,9.686
		c-0.106,1.318-0.325,2.319-1.047,2.501c-0.326,0.091-0.758,0.182-1.299,0.182c-0.434,0-0.578,0.136-0.578,0.363
		c0,0.318,0.252,0.455,0.723,0.455c1.443,0,3.717-0.137,4.548-0.137c1.012,0,3.286,0.137,5.669,0.137
		C96.515,35.011,96.804,34.874,96.804,34.555"/>
	<path d="M106.121,6.547c0.397,0,0.793,0.045,1.155,0.183c0.685,0.271,1.011,0.725,1.083,2.044c0.036,1.229,0.036,2.319,0.036,8.184
		v6.82c0,3.729,0,6.822-0.144,8.413c-0.109,1.137-0.29,1.683-0.939,1.865c-0.289,0.09-0.65,0.135-1.119,0.135
		c-0.398,0-0.506,0.228-0.506,0.413c0,0.271,0.217,0.408,0.615,0.408c1.263,0,3.429-0.137,4.151-0.137
		c0.867,0,3.033,0.137,5.127,0.137c0.362,0,0.615-0.137,0.615-0.408c0-0.184-0.145-0.413-0.507-0.413
		c-0.468,0-1.192-0.045-1.624-0.135c-0.939-0.182-1.156-0.774-1.263-1.821c-0.145-1.634-0.145-4.727-0.145-8.456v-6.82
		c0-5.865,0-6.955,0.072-8.184c0.073-1.364,0.325-1.909,1.192-2.091c0.361-0.091,0.614-0.136,0.938-0.136
		c0.326,0,0.507-0.092,0.507-0.455c0-0.227-0.254-0.318-0.652-0.318c-1.227,0-3.285,0.091-4.079,0.091
		c-0.903,0-3.069-0.091-4.261-0.091c-0.505,0-0.758,0.091-0.758,0.318C105.615,6.455,105.795,6.547,106.121,6.547"/>
	<path d="M150.392,35.009c0.47,0,0.83-0.136,0.83-0.454c0-0.226-0.217-0.364-0.504-0.364c-0.398,0-0.904-0.045-1.806-0.362
		c-0.975-0.364-1.263-1.411-1.554-3.819l-2.889-23.871c-0.107-0.819-0.468-1.228-0.72-1.228c-0.289,0-0.579,0.317-0.831,0.955
		l-8.522,21.824l-8.522-21.551c-0.434-1.047-0.649-1.228-0.975-1.228c-0.253,0-0.542,0.364-0.615,1l-3.14,25.235
		c-0.144,1.272-0.435,2.818-1.3,2.956c-0.506,0.09-0.722,0.09-0.975,0.09c-0.325,0-0.506,0.182-0.506,0.364
		c0,0.363,0.253,0.454,0.577,0.454c1.011,0,2.527-0.136,3.142-0.136c0.578,0,2.023,0.136,3.358,0.136
		c0.47,0,0.758-0.091,0.758-0.454c0-0.182-0.217-0.364-0.506-0.364c-0.288,0-0.578-0.045-1.119-0.182
		c-0.54-0.136-0.975-0.408-0.975-1.136c0-0.637,0.037-1.136,0.109-1.82l1.518-15.095h0.107c1.046,2.682,2.925,7.549,3.177,8.276
		c0.361,1.091,2.889,7.003,3.647,8.775c0.506,1.182,0.868,1.955,1.264,1.955c0.362,0,0.542-0.362,1.263-2.181l6.824-17.279h0.111
		l1.768,16.733c0.108,1.092,0.034,1.546-0.145,1.636c-0.216,0.091-0.36,0.228-0.36,0.409c0,0.227,0.179,0.409,0.937,0.455
		C145.083,34.827,149.598,35.009,150.392,35.009"/>
	<path d="M153.751,6.547c0.468,0,1.011,0.045,1.264,0.136c1.009,0.363,1.299,0.773,1.371,2.091c0.036,1.229,0.036,2.319,0.036,8.184
		v6.82c0,3.547,0,6.593-0.144,8.231c-0.107,1.136-0.289,1.864-0.939,2.046c-0.289,0.09-0.65,0.135-1.12,0.135
		c-0.396,0-0.504,0.228-0.504,0.413c0,0.271,0.216,0.408,0.614,0.408c0.649,0,1.444-0.048,2.202-0.092
		c0.759,0,1.445-0.045,1.805-0.045c0.939,0,2.131,0.045,3.683,0.089c1.553,0.092,3.467,0.139,5.849,0.139
		c1.192,0,1.481,0,1.697-1.002c0.182-0.773,0.434-3.41,0.434-4.274c0-0.409-0.037-0.91-0.289-0.91c-0.218,0-0.289,0.182-0.361,0.59
		c-0.217,1.593-0.579,2.411-1.372,2.865c-0.831,0.454-2.167,0.5-2.997,0.5c-3.25,0-4.225-0.59-4.297-3.228
		c-0.037-1.136,0-4.411,0-5.728v-3.094c0-0.226,0.036-0.408,0.181-0.408c0.794,0,4.404,0.091,4.985,0.182
		c1.189,0.136,1.587,0.727,1.769,1.5c0.07,0.5,0.07,1,0.107,1.41c0,0.181,0.072,0.317,0.289,0.317c0.289,0,0.326-0.544,0.326-0.864
		c0-0.272,0.07-1.817,0.143-2.592c0.181-1.955,0.252-2.59,0.252-2.818c0-0.227-0.108-0.408-0.252-0.408
		c-0.143,0-0.253,0.225-0.505,0.5c-0.29,0.407-0.758,0.499-1.516,0.59c-0.723,0.09-4.841,0.09-5.561,0.09
		c-0.181,0-0.217-0.181-0.217-0.409V8.365c0-0.226,0.072-0.362,0.217-0.362c0.649,0,4.441,0.091,4.985,0.182
		c1.587,0.18,1.84,0.725,2.093,1.408c0.18,0.455,0.216,1.137,0.216,1.41c0,0.318,0.036,0.5,0.253,0.5
		c0.254,0,0.324-0.455,0.36-0.638c0.073-0.454,0.146-2.137,0.182-2.546c0.072-1.772,0.252-2.228,0.252-2.501
		c0-0.181-0.036-0.363-0.216-0.363c-0.145,0-0.324,0.136-0.505,0.182c-0.253,0.046-0.759,0.181-1.336,0.227
		c-0.614,0.044-7.656,0-8.668,0c-0.902,0-2.924-0.091-4.585-0.091c-0.47,0-0.722,0.091-0.722,0.364
		C153.209,6.411,153.426,6.547,153.751,6.547"/>
	<path d="M74.431,47.873c-0.846,0.844-2.076,1.33-3.407,1.33c-1.688,0-2.245-0.301-2.432-0.574
		c-0.116-0.157-0.143-0.729-0.157-1.085c-0.015-0.274-0.03-1.59-0.03-3.107v-1.775c0-1.102,0-2.561,0.016-3.047
		c0-0.156,0.043-0.231,0.172-0.287c0.114-0.057,0.642-0.099,0.929-0.099c1.704,0,3.335,0.199,4.68,1.615
		c0.587,0.615,1.374,1.79,1.374,3.606C75.576,45.769,75.175,47.142,74.431,47.873 M69.737,38.741c-0.857,0-1.76,0.045-1.932,0.045
		c-0.071,0-0.973-0.045-1.616-0.045c-0.157,0-0.229,0.03-0.229,0.115l0.115,0.087c0.129,0,0.372,0.016,0.486,0.044
		c0.472,0.1,0.587,0.33,0.616,0.814c0.028,0.458,0.028,0.858,0.028,3.093v2.517c0,1.374,0,2.506-0.072,3.106
		c-0.056,0.415-0.128,0.729-0.415,0.787c-0.128,0.028-0.299,0.057-0.428,0.057l-0.115,0.084c0,0.087,0.072,0.115,0.229,0.115
		c0.214,0,0.543-0.028,0.829-0.028c0.3-0.015,0.544-0.015,0.572-0.015c0.072,0,0.558,0.043,1.189,0.085
		c0.614,0.043,1.372,0.087,1.987,0.087c2.434,0,3.723-1.002,4.337-1.645c0.802-0.844,1.548-2.232,1.548-4.036
		c0-1.702-0.674-2.889-1.39-3.634C73.773,38.612,71.155,38.741,69.737,38.741"/>
	<path d="M81.505,49.303c-0.371-0.056-0.415-0.286-0.457-0.644c-0.058-0.499-0.058-1.459-0.058-2.633V43.88
		c0-1.891,0-2.235,0.013-2.618c0.03-0.43,0.1-0.603,0.445-0.674c0.142-0.029,0.229-0.029,0.314-0.029l0.1-0.099
		c0-0.073-0.057-0.1-0.2-0.1c-0.387,0-1.203,0.027-1.259,0.027c-0.072,0-0.86-0.027-1.275-0.027c-0.142,0-0.199,0.027-0.199,0.1
		l0.099,0.099c0.087,0,0.244,0.015,0.388,0.043c0.272,0.057,0.372,0.244,0.4,0.66c0.028,0.384,0.028,0.728,0.028,2.618v2.146
		c0,1.174-0.015,2.133-0.072,2.633c-0.042,0.359-0.084,0.588-0.328,0.644c-0.116,0.028-0.272,0.057-0.386,0.057l-0.101,0.1
		c0,0.071,0.071,0.1,0.2,0.1c0.386,0,1.174-0.044,1.246-0.044c0.055,0,0.872,0.044,1.573,0.044c0.144,0,0.2-0.044,0.2-0.1l-0.1-0.1
		C81.963,49.361,81.692,49.331,81.505,49.303"/>
	<path d="M87.302,44.28l-0.358-0.243c-1.244-0.845-1.631-1.288-1.631-2.062c0-0.858,0.758-1.316,1.675-1.316
		c1.13,0,1.545,0.458,1.631,0.601c0.072,0.129,0.172,0.459,0.186,0.599l0.116,0.161c0.085,0,0.1-0.087,0.1-0.274
		c0-0.829,0.056-1.229,0.056-1.287l-0.129-0.085c-0.1,0-0.2,0-0.443-0.057c-0.3-0.073-0.802-0.143-1.302-0.143
		c-1.661,0-2.79,0.858-2.79,2.29c0,0.842,0.443,1.587,1.804,2.604l0.571,0.43c1.117,0.829,1.589,1.245,1.589,2.117
		c0,0.915-0.644,1.617-1.889,1.617c-0.845,0-1.789-0.314-1.988-1.201c-0.043-0.171-0.043-0.345-0.043-0.445l-0.116-0.141
		c-0.071,0-0.099,0.07-0.099,0.201c-0.015,0.2-0.072,0.685-0.072,1.287c0,0.33,0.013,0.371,0.186,0.455
		c0.516,0.244,1.245,0.331,1.832,0.331c0.687,0,1.474-0.087,2.004-0.43c0.901-0.585,1.173-1.359,1.173-2.074
		C89.363,46.168,88.833,45.325,87.302,44.28"/>
	<path d="M98.611,40.331c-0.201,0.029-0.487,0.056-0.902,0.056h-4.752c-0.142,0-0.629-0.014-0.987-0.056
		c-0.343-0.044-0.472-0.143-0.557-0.143l-0.129,0.229c-0.015,0.1-0.273,1.187-0.273,1.316l0.087,0.101l0.128-0.116
		c0.044-0.087,0.058-0.172,0.201-0.387c0.186-0.287,0.486-0.371,1.274-0.386l1.816-0.029v5.109c0,1.174,0,2.133-0.056,2.633
		c-0.044,0.359-0.115,0.602-0.373,0.658c-0.114,0.03-0.258,0.057-0.372,0.057l-0.099,0.087c0,0.071,0.057,0.1,0.199,0.1
		c0.372,0,1.245-0.044,1.303-0.044c0.071,0,0.873,0.044,1.56,0.044c0.142,0,0.2-0.044,0.2-0.1l-0.1-0.1
		c-0.115,0-0.4-0.029-0.572-0.057c-0.387-0.056-0.444-0.286-0.487-0.644c-0.057-0.499-0.057-1.459-0.057-2.633v-5.109l1.575,0.029
		c1.202,0.029,1.474,0.3,1.516,0.673l0.015,0.127c0.015,0.173,0.044,0.215,0.1,0.215l0.115-0.157c0-0.142,0.044-1.014,0.044-1.386
		l-0.058-0.144C98.91,40.273,98.796,40.302,98.611,40.331"/>
	<path d="M104.208,45.254c-0.558,0-1.201-0.085-1.388-0.184l-0.085-0.16v-3.906l0.1-0.143c0.128-0.029,0.53-0.072,0.902-0.072
		c1.344,0,2.174,0.873,2.174,2.39c0,0.929-0.328,1.572-0.758,1.86C104.851,45.238,104.509,45.254,104.208,45.254 M109.545,49.317
		c-0.315-0.043-0.73-0.156-1.402-0.845c-0.729-0.759-1.603-1.86-2.633-3.148c1.174-1.002,1.545-1.874,1.545-2.776
		c0-0.844-0.557-1.431-0.872-1.661c-0.66-0.457-1.546-0.529-2.348-0.529c-0.386,0-1.445,0.028-1.573,0.028
		c-0.072,0-0.917-0.028-1.488-0.028c-0.144,0-0.2,0.028-0.2,0.101l0.1,0.099c0.115,0,0.33,0.015,0.428,0.028
		c0.415,0.058,0.487,0.259,0.515,0.674c0.029,0.385,0.029,0.729,0.029,2.619v2.147c0,1.172,0,2.13-0.073,2.632
		c-0.056,0.359-0.085,0.587-0.33,0.644c-0.114,0.027-0.27,0.057-0.385,0.057l-0.1,0.1c0,0.071,0.071,0.1,0.2,0.1
		c0.386,0,1.23-0.044,1.245-0.044c0.057,0,0.859,0.044,1.545,0.044c0.144,0,0.2-0.044,0.2-0.1l-0.1-0.1
		c-0.114,0-0.386-0.03-0.559-0.057c-0.386-0.057-0.457-0.286-0.499-0.644c-0.057-0.502-0.057-1.445-0.057-2.617v-0.288l0.085-0.1
		l1.603,0.029l0.171,0.071c0.272,0.33,0.831,1.116,1.361,1.775c0.715,0.915,1.173,1.503,1.716,1.788
		c0.315,0.173,0.63,0.244,1.346,0.244h0.786c0.229,0,0.3-0.029,0.3-0.1l-0.115-0.1C109.919,49.361,109.789,49.361,109.545,49.317"/>
	<path d="M112.926,49.303c-0.371-0.056-0.414-0.286-0.457-0.644c-0.057-0.499-0.057-1.459-0.057-2.633V43.88
		c0-1.891,0-2.235,0.012-2.618c0.031-0.43,0.101-0.603,0.447-0.674c0.142-0.029,0.228-0.029,0.314-0.029l0.1-0.099
		c0-0.073-0.058-0.1-0.2-0.1c-0.387,0-1.202,0.027-1.259,0.027c-0.072,0-0.86-0.027-1.275-0.027c-0.142,0-0.199,0.027-0.199,0.1
		l0.1,0.099c0.085,0,0.243,0.015,0.386,0.043c0.272,0.057,0.373,0.244,0.4,0.66c0.029,0.384,0.029,0.728,0.029,2.618v2.146
		c0,1.174-0.015,2.133-0.072,2.633c-0.043,0.359-0.085,0.588-0.33,0.644c-0.115,0.028-0.271,0.057-0.386,0.057l-0.1,0.1
		c0,0.071,0.072,0.1,0.2,0.1c0.386,0,1.174-0.044,1.246-0.044c0.056,0,0.872,0.044,1.573,0.044c0.144,0,0.199-0.044,0.199-0.1
		l-0.099-0.1C113.385,49.361,113.114,49.331,112.926,49.303"/>
	<path d="M119.182,49.161c-0.228,0-0.758-0.015-1.102-0.172c-0.386-0.186-0.386-0.33-0.429-0.917
		c-0.015-0.187-0.015-1.644-0.015-2.588v-0.675l0.071-0.084c0.201,0,0.831,0,0.989,0.026c0.299,0.058,0.701,0.044,1.13,0.318
		c0.987,0.629,1.202,1.672,1.202,2.217C121.028,48.845,120.013,49.161,119.182,49.161 M117.636,40.931
		c0-0.071,0.044-0.1,0.157-0.128c0.2-0.043,0.5-0.057,0.644-0.057c1.258,0,1.774,1.03,1.774,1.958c0,0.589-0.215,1.004-0.486,1.303
		c-0.258,0.288-0.53,0.315-1.23,0.315c-0.473,0-0.702-0.043-0.774-0.056l-0.085-0.129V40.931z M119.983,44.351
		c0.643-0.571,1.273-1.173,1.273-2.132c0-0.644-0.543-1.859-2.646-1.859c-0.588,0-1.174,0.028-1.474,0.028
		c-0.072,0-0.887-0.028-1.46-0.028c-0.143,0-0.2,0.028-0.2,0.099l0.1,0.073c0.115,0,0.33,0.015,0.429,0.027
		c0.415,0.057,0.487,0.287,0.515,0.702c0.029,0.385,0.029,0.729,0.029,2.619v2.147c0,1.173,0,2.13-0.072,2.632
		c-0.057,0.358-0.085,0.63-0.328,0.673c-0.116,0.016-0.272,0.057-0.387,0.057l-0.1,0.072c0,0.071,0.072,0.1,0.2,0.1
		c0.2,0,0.5-0.015,0.759-0.029c0.258,0,0.487-0.013,0.515-0.013c0.056,0,0.415,0.013,0.814,0.028
		c0.403,0.029,0.859,0.044,1.089,0.044c2.147,0,3.163-1.346,3.163-2.705C122.201,45.51,120.943,44.638,119.983,44.351"/>
	<path d="M131.835,40.388c-0.071,0-0.802-0.028-1.36-0.028c-0.144,0-0.2,0.028-0.2,0.099l0.1,0.101c0.115,0,0.33,0.013,0.43,0.028
		c0.416,0.058,0.487,0.286,0.502,0.673c0.015,0.386,0.028,0.73,0.028,2.619v1.53c0,1.246-0.128,2.248-0.715,2.95
		c-0.43,0.514-1.173,0.858-1.947,0.858c-0.714,0-1.26-0.1-1.874-0.658c-0.544-0.488-0.931-1.218-0.931-2.976V43.88
		c0-1.889,0-2.234,0.029-2.619c0.028-0.399,0.101-0.614,0.43-0.673c0.157-0.028,0.228-0.028,0.315-0.028l0.115-0.101
		c0-0.071-0.072-0.099-0.215-0.099c-0.373,0-1.16,0.028-1.273,0.028c-0.116,0-0.875-0.028-1.446-0.028
		c-0.144,0-0.199,0.028-0.199,0.099l0.099,0.101c0.115,0,0.33,0.013,0.43,0.028c0.415,0.058,0.486,0.286,0.515,0.673
		c0.029,0.386,0.029,0.73,0.029,2.619v1.789c0,1.774,0.487,2.619,1.101,3.19c0.887,0.831,2.203,0.858,2.619,0.858
		c0.743,0,1.716-0.1,2.632-0.886c1.002-0.858,1.175-2.333,1.175-3.65V43.88c0-1.889-0.015-2.234,0.013-2.619
		c0.028-0.399,0.1-0.601,0.443-0.673c0.157-0.028,0.228-0.028,0.315-0.028l0.1-0.101c0-0.071-0.057-0.099-0.2-0.099
		C132.522,40.36,131.923,40.388,131.835,40.388"/>
	<path d="M141.513,40.331c-0.2,0.029-0.486,0.056-0.902,0.056h-4.751c-0.143,0-0.629-0.014-0.987-0.056
		c-0.344-0.044-0.472-0.143-0.558-0.143l-0.129,0.229c-0.013,0.1-0.272,1.187-0.272,1.316L134,41.834l0.128-0.116
		c0.044-0.087,0.057-0.172,0.2-0.387c0.187-0.287,0.486-0.371,1.274-0.386l1.819-0.029v5.109c0,1.174,0,2.133-0.057,2.633
		c-0.043,0.359-0.117,0.602-0.372,0.658c-0.116,0.03-0.259,0.057-0.373,0.057l-0.1,0.087c0,0.071,0.058,0.1,0.2,0.1
		c0.373,0,1.246-0.044,1.302-0.044c0.073,0,0.874,0.044,1.56,0.044c0.142,0,0.2-0.044,0.2-0.1l-0.1-0.1
		c-0.114,0-0.4-0.029-0.572-0.057c-0.386-0.056-0.443-0.286-0.486-0.644c-0.057-0.499-0.057-1.459-0.057-2.633v-5.109l1.576,0.029
		c1.199,0.029,1.472,0.3,1.515,0.673l0.013,0.127c0.015,0.173,0.044,0.215,0.101,0.215l0.115-0.157c0-0.142,0.043-1.014,0.043-1.386
		l-0.057-0.144C141.813,40.273,141.7,40.302,141.513,40.331"/>
	<path d="M146.209,49.303c-0.371-0.056-0.414-0.286-0.457-0.644c-0.057-0.499-0.057-1.459-0.057-2.633V43.88
		c0-1.891,0-2.235,0.013-2.618c0.029-0.43,0.101-0.603,0.445-0.674c0.141-0.029,0.228-0.029,0.313-0.029l0.1-0.099
		c0-0.073-0.057-0.1-0.2-0.1c-0.386,0-1.201,0.027-1.259,0.027c-0.072,0-0.859-0.027-1.274-0.027c-0.142,0-0.2,0.027-0.2,0.1
		l0.1,0.099c0.087,0,0.243,0.015,0.389,0.043c0.27,0.057,0.371,0.244,0.399,0.66c0.029,0.384,0.029,0.728,0.029,2.618v2.146
		c0,1.174-0.015,2.133-0.072,2.633c-0.044,0.359-0.087,0.588-0.331,0.644c-0.116,0.028-0.271,0.057-0.385,0.057l-0.101,0.1
		c0,0.071,0.071,0.1,0.2,0.1c0.386,0,1.173-0.044,1.245-0.044c0.057,0,0.873,0.044,1.575,0.044c0.145,0,0.199-0.044,0.199-0.1
		l-0.099-0.1C146.667,49.361,146.396,49.331,146.209,49.303"/>
	<path d="M153.767,49.217c-2.275,0-3.978-1.774-3.978-4.607c0-2.65,1.516-3.964,3.621-3.964c1.988,0,3.763,1.531,3.763,4.45
		C157.173,48.617,154.899,49.217,153.767,49.217 M153.481,40.187c-3.477,0-4.995,2.791-4.995,4.753c0,2.186,1.476,4.778,4.924,4.778
		c3.034,0,5.052-2.248,5.052-4.967C158.462,41.92,156.315,40.187,153.481,40.187"/>
	<path d="M169.771,40.358c-0.514,0-0.929,0.029-1.074,0.029c-0.144,0-0.743-0.029-1.316-0.029c-0.143,0-0.243,0.014-0.243,0.085
		l0.1,0.114c0.101,0,0.387,0.015,0.615,0.06c0.386,0.072,0.458,0.343,0.472,1.13l0.128,6.096c-0.386-0.399-1.731-1.846-2.976-3.133
		c-1.946-2.005-3.778-3.949-3.978-4.152c-0.129-0.125-0.343-0.37-0.487-0.37c-0.099,0-0.171,0.128-0.171,0.615v6.97
		c0,1.101-0.044,1.429-0.359,1.516c-0.186,0.058-0.415,0.072-0.515,0.072l-0.1,0.1c0,0.087,0.071,0.1,0.2,0.1
		c0.574,0,1.102-0.043,1.217-0.043c0.115,0,0.614,0.043,1.33,0.043c0.143,0,0.228-0.027,0.228-0.1l-0.1-0.1
		c-0.115,0-0.399-0.013-0.629-0.072c-0.344-0.087-0.459-0.386-0.486-1.388l-0.144-5.737c0.386,0.43,1.802,1.916,3.263,3.448
		c1.329,1.388,3.148,3.176,3.276,3.291c0.702,0.644,0.831,0.745,0.958,0.745c0.089,0,0.102-0.071,0.102-0.874l0.027-7.126
		c0-0.73,0.03-0.974,0.444-1.059c0.144-0.03,0.244-0.03,0.301-0.03L170,40.444C170,40.372,169.9,40.358,169.771,40.358"/>
</g>
<rect y="42.699" width="60.888" height="0.661"/>
</svg>
